<svg width="20px" height="17px" viewBox="0 0 20 17" version="1.1" xmlns="http://www.w3.org/2000/svg" xmlns:xlink="http://www.w3.org/1999/xlink">
    <defs></defs>
    <g id="Page-1" stroke="none" stroke-width="1" fill="none" fill-rule="evenodd">
        <path d="M19.972,8.81004831 C19.972,8.22654119 19.4975474,7.75187139 18.9140403,7.75187139 L17.6279784,7.75187139 L17.6279784,2.38690789 C17.6279784,0.977670838 16.8231036,0.067 15.5774484,0.067 C14.7979906,0.067 14.0747981,0.519728537 13.732862,1.22097984 C13.3261884,1.25074174 12.194367,1.39585819 11.9073928,2.09493709 C11.8813239,2.15815398 11.8815412,2.22919152 11.9080445,2.29240841 C11.9345478,2.3556253 11.9847303,2.40559055 12.0481644,2.43165937 L14.4973302,3.43726416 C14.5286128,3.45008133 14.5620678,3.45659854 14.5953055,3.45659854 C14.629195,3.45659854 14.6630845,3.45008133 14.6948015,3.43661244 C14.7580184,3.41010914 14.8079837,3.35970942 14.8340525,3.29649253 C15.104951,2.6356479 14.4912475,1.7960146 14.1966698,1.44669239 C14.452796,0.921840111 14.9939413,0.582728189 15.5776656,0.582728189 C16.5385189,0.582728189 17.1122503,1.25704171 17.1122503,2.38669065 L17.1122503,7.75165415 L9.06219812,7.75165415 L9.06219812,7.66736496 C9.06219812,7.4929211 9.06219812,6.96220334 6.17051408,6.96220334 C3.27883003,6.96220334 3.27883003,7.4929211 3.27883003,7.66736496 L3.27883003,7.75165415 L1.02995968,7.75165415 C0.446452555,7.75165415 -0.028,8.22654119 -0.028,8.80983107 C-0.028,8.87826173 -0.000844977407,8.94386827 0.0475995829,8.99231283 L0.771878345,9.71659159 L0.771878345,10.8872989 C0.771878345,13.3875162 1.52526729,14.6868297 2.96165937,15.3641846 L2.52001008,16.6413396 C2.47330344,16.7760285 2.54477546,16.9228829 2.67946437,16.9693723 C2.70727112,16.9791481 2.73594682,16.9837101 2.76375356,16.9837101 C2.87063573,16.9837101 2.97056621,16.9168001 3.00749705,16.809918 L3.43958777,15.5605697 C4.98764129,16.1006288 7.18589468,16.100846 9.972,16.100846 C12.6510059,16.100846 14.8881453,16.0991081 16.4868158,15.5095182 L16.936503,16.809918 C16.9734338,16.9168001 17.0733643,16.9837101 17.1804637,16.9837101 C17.2082704,16.9837101 17.2369461,16.9791481 17.2647529,16.9693723 C17.3994418,16.9228829 17.4706966,16.7758113 17.4242072,16.6413396 L16.9630063,15.3085711 C18.3750674,14.6162266 19.1719044,13.3193027 19.1719044,10.8872989 L19.1719044,9.71659159 L19.8961832,8.99231283 C19.944845,8.94408551 19.972,8.87847897 19.972,8.81004831 Z M12.5578099,2.08342336 C12.8632496,1.85532117 13.4445843,1.76169065 13.7650136,1.73605631 C13.997895,2.00434793 14.3194105,2.4685902 14.3767619,2.8302951 L12.5578099,2.08342336 Z M3.7949927,11.1905662 L8.54625269,11.1905662 L8.54625269,11.671536 C8.34291588,11.7836319 7.51066875,11.9309208 6.17051408,11.9309208 C4.8303594,11.9309208 3.99811227,11.7836319 3.79477546,11.671536 L3.79477546,11.1905662 L3.7949927,11.1905662 Z M3.7949927,7.73775078 C3.99811227,7.62565485 4.8303594,7.47836601 6.17073132,7.47836601 C7.51110323,7.47836601 8.34313312,7.62587209 8.54646993,7.73775078 L8.54646993,10.6746208 L3.7949927,10.6746208 L3.7949927,7.73775078 Z M1.02995968,8.26781682 L3.27926451,8.26781682 L3.27926451,9.35206257 L1.13662461,9.35206257 L0.496635036,8.71207299 C0.543124435,8.4596399 0.764492179,8.26781682 1.02995968,8.26781682 Z M9.972,15.5851178 C4.00940876,15.5851178 1.28782377,15.5851178 1.28782377,10.8872989 L1.28782377,9.86779075 L3.27904727,9.86779075 L3.27904727,11.7414873 C3.27904727,11.9159312 3.27904727,12.4466489 6.17073132,12.4466489 C9.06241536,12.4466489 9.06241536,11.9159312 9.06241536,11.7414873 L9.06241536,9.86779075 L18.6561762,9.86779075 L18.6561762,10.8872989 C18.6561762,15.3952499 15.9938978,15.5851178 9.972,15.5851178 Z M18.8071582,9.35206257 L9.06219812,9.35206257 L9.06219812,8.26781682 L18.9140403,8.26781682 C19.1795078,8.26781682 19.4008756,8.4596399 19.4471477,8.71207299 L18.8071582,9.35206257 Z" id="Shape" fill="#616970" fill-rule="nonzero"></path>
    </g>
</svg>