<svg width="21px" height="16px" viewBox="0 0 21 16" version="1.1" xmlns="http://www.w3.org/2000/svg" xmlns:xlink="http://www.w3.org/1999/xlink">
    <g id="Page-1" stroke="none" stroke-width="1" fill="none" fill-rule="evenodd">
        <g id="bed" fill-rule="nonzero" fill="#616970">
            <path d="M19.1743316,7.24705882 C18.9604278,7.24705882 18.7807487,7.07593583 18.7807487,6.85347594 L18.7807487,3.53368984 C18.7807487,2.04491979 17.4716578,0.829946524 15.8631016,0.829946524 L5.13368984,0.829946524 C3.52513369,0.829946524 2.21604278,2.04491979 2.21604278,3.53368984 L2.21604278,6.85347594 C2.21604278,7.06737968 2.04491979,7.24705882 1.82245989,7.24705882 C1.6,7.24705882 1.42887701,7.07593583 1.42887701,6.85347594 L1.42887701,3.53368984 C1.42887701,1.6171123 3.08877005,0.0513368984 5.12513369,0.0513368984 L15.8631016,0.0513368984 C17.8994652,0.0513368984 19.5593583,1.6171123 19.5593583,3.53368984 L19.5593583,6.85347594 C19.5593583,7.07593583 19.3882353,7.24705882 19.1743316,7.24705882 Z" id="Shape"></path>
            <path d="M20.4748663,13.6898396 L0.539037433,13.6898396 C0.256684492,13.6898396 0.0171122995,13.4588235 0.0171122995,13.1679144 L0.0171122995,8.17967914 C0.0171122995,7.8973262 0.248128342,7.65775401 0.539037433,7.65775401 L20.4748663,7.65775401 C20.7572193,7.65775401 20.9967914,7.88877005 20.9967914,8.17967914 L20.9967914,13.1679144 C20.9882353,13.4502674 20.7572193,13.6898396 20.4748663,13.6898396 Z M0.795721925,12.9026738 L20.2096257,12.9026738 L20.2096257,8.43636364 L0.795721925,8.43636364 L0.795721925,12.9026738 Z" id="Shape"></path>
            <path d="M8.82994652,6.4855615 C8.61604278,6.4855615 8.43636364,6.3144385 8.43636364,6.09197861 L8.43636364,4.45775401 C8.43636364,4.24385027 8.25668449,4.06417112 8.04278075,4.06417112 L4.67165775,4.06417112 C4.45775401,4.06417112 4.27807487,4.24385027 4.27807487,4.45775401 L4.27807487,6.10053476 C4.27807487,6.3144385 4.10695187,6.49411765 3.88449198,6.49411765 C3.67058824,6.49411765 3.49090909,6.32299465 3.49090909,6.10053476 L3.49090909,4.45775401 C3.49090909,3.80748663 4.02139037,3.2855615 4.6631016,3.2855615 L8.04278075,3.2855615 C8.69304813,3.2855615 9.21497326,3.81604278 9.21497326,4.45775401 L9.21497326,6.10053476 C9.22352941,6.3144385 9.04385027,6.4855615 8.82994652,6.4855615 Z" id="Shape"></path>
            <path d="M17.0609626,6.4855615 C16.8470588,6.4855615 16.6673797,6.3144385 16.6673797,6.09197861 L16.6673797,4.45775401 C16.6673797,4.24385027 16.4877005,4.06417112 16.2737968,4.06417112 L12.8941176,4.06417112 C12.6802139,4.06417112 12.5005348,4.24385027 12.5005348,4.45775401 L12.5005348,6.10053476 C12.5005348,6.3144385 12.3294118,6.49411765 12.1069519,6.49411765 C11.8930481,6.49411765 11.713369,6.32299465 11.713369,6.10053476 L11.713369,4.45775401 C11.713369,3.80748663 12.2438503,3.2855615 12.8855615,3.2855615 L16.2652406,3.2855615 C16.915508,3.2855615 17.4374332,3.81604278 17.4374332,4.45775401 L17.4374332,6.10053476 C17.4545455,6.3144385 17.2748663,6.4855615 17.0609626,6.4855615 Z" id="Shape"></path>
            <path d="M2.37860963,15.9229947 C2.16470588,15.9229947 1.98502674,15.7518717 1.98502674,15.5294118 L1.98502674,13.2962567 C1.98502674,13.0823529 2.15614973,12.9026738 2.37860963,12.9026738 C2.59251337,12.9026738 2.77219251,13.0737968 2.77219251,13.2962567 L2.77219251,15.5294118 C2.77219251,15.7433155 2.59251337,15.9229947 2.37860963,15.9229947 Z" id="Shape"></path>
            <path d="M18.6181818,15.9229947 C18.4042781,15.9229947 18.2245989,15.7518717 18.2245989,15.5294118 L18.2245989,13.2962567 C18.2245989,13.0823529 18.3957219,12.9026738 18.6181818,12.9026738 C18.8406417,12.9026738 19.0117647,13.0737968 19.0117647,13.2962567 L19.0117647,15.5294118 C19.0117647,15.7433155 18.8406417,15.9229947 18.6181818,15.9229947 Z" id="Shape"></path>
        </g>
    </g>
</svg>